<svg xmlns="http://www.w3.org/2000/svg" width="18" height="17" viewBox="0 0 18 17"><g><g><path fill="#fff" d="M9 16a.54.54 0 0 1-.397-.174L2.208 8.911l-.004-.006C1.427 8.043 1 6.9 1 5.687s.427-2.356 1.204-3.218L2.3 2.36C3.09 1.483 4.146 1 5.27 1c1.126 0 2.18.483 2.97 1.361L9 3.203l.758-.842C10.548 1.483 11.603 1 12.728 1c1.126 0 2.181.483 2.971 1.361l.097.108C16.572 3.33 17 4.474 17 5.687s-.428 2.356-1.204 3.218l-.005.006-6.394 6.915A.54.54 0 0 1 9 16zM3.005 8.174L9 14.658l5.995-6.484c1.234-1.373 1.233-3.605-.002-4.977l-.097-.108c-.583-.647-1.352-1.003-2.168-1.003-.815 0-1.585.356-2.167 1.003l-1.16 1.289a.542.542 0 0 1-.803 0l-1.16-1.289c-.582-.647-1.351-1.003-2.167-1.003-.815 0-1.585.356-2.167 1.003l-.097.108C1.772 4.569 1.77 6.8 3.005 8.174z"/><path fill="none" stroke="#fff" stroke-linecap="round" stroke-linejoin="round" stroke-miterlimit="50" d="M9 16a.54.54 0 0 1-.397-.174L2.208 8.911l-.004-.006C1.427 8.043 1 6.9 1 5.687s.427-2.356 1.204-3.218L2.3 2.36C3.09 1.483 4.146 1 5.27 1c1.126 0 2.18.483 2.97 1.361L9 3.203l.758-.842C10.548 1.483 11.603 1 12.728 1c1.126 0 2.181.483 2.971 1.361l.097.108C16.572 3.33 17 4.474 17 5.687s-.428 2.356-1.204 3.218l-.005.006-6.394 6.915A.54.54 0 0 1 9 16zM3.005 8.174L9 14.658l5.995-6.484c1.234-1.373 1.233-3.605-.002-4.977l-.097-.108c-.583-.647-1.352-1.003-2.168-1.003-.815 0-1.585.356-2.167 1.003l-1.16 1.289a.542.542 0 0 1-.803 0l-1.16-1.289c-.582-.647-1.351-1.003-2.167-1.003-.815 0-1.585.356-2.167 1.003l-.097.108C1.772 4.569 1.77 6.8 3.005 8.174z"/></g></g></svg>